<svg class="main-svg" xmlns="http://www.w3.org/2000/svg" xmlns:xlink="http://www.w3.org/1999/xlink" width="900" height="300" style="" viewBox="0 0 900 300"><rect x="0" y="0" width="900" height="300" style="fill: rgb(255, 255, 255); fill-opacity: 1;"/><defs id="defs-5f4d7e"><g class="clips"><clipPath id="clip5f4d7exyplot" class="plotclip"><rect width="351" height="140"/></clipPath><clipPath id="clip5f4d7ex2y2plot" class="plotclip"><rect width="350.99999999999994" height="140"/></clipPath><clipPath class="axesclip" id="clip5f4d7ex"><rect x="80" y="0" width="351" height="300"/></clipPath><clipPath class="axesclip" id="clip5f4d7ey"><rect x="0" y="80" width="900" height="140"/></clipPath><clipPath class="axesclip" id="clip5f4d7exy"><rect x="80" y="80" width="351" height="140"/></clipPath><clipPath class="axesclip" id="clip5f4d7ey2"><rect x="0" y="80" width="900" height="140"/></clipPath><clipPath class="axesclip" id="clip5f4d7exy2"><rect x="80" y="80" width="351" height="140"/></clipPath><clipPath class="axesclip" id="clip5f4d7ex2"><rect x="509.00000000000006" y="0" width="350.99999999999994" height="300"/></clipPath><clipPath class="axesclip" id="clip5f4d7ex2y"><rect x="509.00000000000006" y="80" width="350.99999999999994" height="140"/></clipPath><clipPath class="axesclip" id="clip5f4d7ex2y2"><rect x="509.00000000000006" y="80" width="350.99999999999994" height="140"/></clipPath></g><g class="gradients"/><g class="patterns"/></defs><g class="bglayer"/><g class="layer-below"><g class="imagelayer"/><g class="shapelayer"/></g><g class="cartesianlayer"><g class="subplot xy"><g class="layer-subplot"><g class="shapelayer"/><g class="imagelayer"/></g><g class="minor-gridlayer"><g class="x"/><g class="y"/></g><g class="gridlayer"><g class="x"><path class="xgrid crisp" transform="translate(150.2,0)" d="M0,80v140" style="stroke: rgb(200, 200, 200); stroke-opacity: 0.35; stroke-width: 1px;"/><path class="xgrid crisp" transform="translate(220.4,0)" d="M0,80v140" style="stroke: rgb(200, 200, 200); stroke-opacity: 0.35; stroke-width: 1px;"/><path class="xgrid crisp" transform="translate(290.6,0)" d="M0,80v140" style="stroke: rgb(200, 200, 200); stroke-opacity: 0.35; stroke-width: 1px;"/><path class="xgrid crisp" transform="translate(360.8,0)" d="M0,80v140" style="stroke: rgb(200, 200, 200); stroke-opacity: 0.35; stroke-width: 1px;"/></g><g class="y"><path class="ygrid crisp" transform="translate(0,196.67000000000002)" d="M80,0h351" style="stroke: rgb(200, 200, 200); stroke-opacity: 0.35; stroke-width: 1px;"/><path class="ygrid crisp" transform="translate(0,173.32999999999998)" d="M80,0h351" style="stroke: rgb(200, 200, 200); stroke-opacity: 0.35; stroke-width: 1px;"/><path class="ygrid crisp" transform="translate(0,150)" d="M80,0h351" style="stroke: rgb(200, 200, 200); stroke-opacity: 0.35; stroke-width: 1px;"/><path class="ygrid crisp" transform="translate(0,126.67)" d="M80,0h351" style="stroke: rgb(200, 200, 200); stroke-opacity: 0.35; stroke-width: 1px;"/><path class="ygrid crisp" transform="translate(0,103.33)" d="M80,0h351" style="stroke: rgb(200, 200, 200); stroke-opacity: 0.35; stroke-width: 1px;"/></g></g><g class="zerolinelayer"/><g class="layer-between"><g class="shapelayer"/><g class="imagelayer"/></g><path class="xlines-below"/><path class="ylines-below"/><g class="overlines-below"/><g class="xaxislayer-below"/><g class="yaxislayer-below"/><g class="overaxes-below"/><g class="overplot"><g class="xy" transform="translate(80,80)" clip-path="url(#clip5f4d7exyplot)"><g class="scatterlayer mlayer"><g class="trace scatter trace372449" style="stroke-miterlimit: 2; opacity: 1;"><g class="fills"/><g class="errorbars"/><g class="lines"><path class="js-line" d="M0,34.74L17.55,30.41L21.06,29.87L63.18,27.59L66.69,27.37L112.32,25.25L115.83,25.09L189.54,21.27L193.05,20.99L217.62,18.99L221.13,21.97L245.7,43.57L249.21,46.81L319.41,110.81L322.92,113.95L351,139.61" style="vector-effect: none; fill: none; stroke: rgb(228, 26, 28); stroke-opacity: 1; stroke-width: 2px; opacity: 1;"/></g><g class="points"/><g class="text"/></g><g class="trace scatter trace4201c3" style="stroke-miterlimit: 2; opacity: 1;"><g class="fills"/><g class="errorbars"/><g class="lines"><path class="js-line" d="M0,32.52L21.06,29.49L24.57,29.3L207.09,19.91L210.6,20.07L305.37,100.57L308.88,103.67L351,139.61" style="vector-effect: none; fill: none; stroke: rgb(231, 49, 51); stroke-opacity: 1; stroke-width: 2px; opacity: 1;"/></g><g class="points"/><g class="text"/></g><g class="trace scatter tracedf4ca4" style="stroke-miterlimit: 2; opacity: 1;"><g class="fills"/><g class="errorbars"/><g class="lines"><path class="js-line" d="M0,31.26L28.08,28.79L31.59,28.6L196.56,19.94L200.07,21.34L203.58,22.73L207.09,25.5L333.45,125.79L336.96,128.6L347.49,137.13L351,139.62" style="vector-effect: none; fill: none; stroke: rgb(233, 72, 73); stroke-opacity: 1; stroke-width: 2px; opacity: 1;"/></g><g class="points"/><g class="text"/></g><g class="trace scatter trace93d91d" style="stroke-miterlimit: 2; opacity: 1;"><g class="fills"/><g class="errorbars"/><g class="lines"><path class="js-line" d="M0,30.31L35.1,27.78L38.61,27.62L157.95,21.78L161.46,21.59L186.03,20.75L189.54,21.11L214.11,38.82L217.62,41.49L277.29,85L280.8,87.66L343.98,135.03L347.49,137.32L351,139.62" style="vector-effect: none; fill: none; stroke: rgb(236, 95, 96); stroke-opacity: 1; stroke-width: 2px; opacity: 1;"/></g><g class="points"/><g class="text"/></g><g class="trace scatter trace262ddb" style="stroke-miterlimit: 2; opacity: 1;"><g class="fills"/><g class="errorbars"/><g class="lines"><path class="js-line" d="M0,29.36L49.14,26.52L52.65,26.36L175.5,20.66L179.01,22.91L207.09,41.7L210.6,44.2L280.8,91.59L284.31,94.1L305.37,108.4L308.88,110.77L336.96,130.49L340.47,132.95L351,139.62" style="vector-effect: none; fill: none; stroke: rgb(239, 118, 119); stroke-opacity: 1; stroke-width: 2px; opacity: 1;"/></g><g class="points"/><g class="text"/></g><g class="trace scatter traceb847d6" style="stroke-miterlimit: 2; opacity: 1;"><g class="fills"/><g class="errorbars"/><g class="lines"><path class="js-line" d="M0,28.41L45.63,25.82L49.14,25.7L129.87,22.03L133.38,21.84L154.44,20.7L157.95,21.27L161.46,21.84L164.97,23.94L210.6,52.08L214.11,54.27L340.47,133.52L343.98,135.8L351,139.62" style="vector-effect: none; fill: none; stroke: rgb(242, 140, 141); stroke-opacity: 1; stroke-width: 2px; opacity: 1;"/></g><g class="points"/><g class="text"/></g><g class="trace scatter trace984e6e" style="stroke-miterlimit: 2; opacity: 1;"><g class="fills"/><g class="errorbars"/><g class="lines"><path class="js-line" d="M0,27.47L35.1,25.57L38.61,25.41L140.4,20.51L143.91,22.49L284.31,101.7L287.82,103.87L351,139.62" style="vector-effect: none; fill: none; stroke: rgb(244, 163, 164); stroke-opacity: 1; stroke-width: 2px; opacity: 1;"/></g><g class="points"/><g class="text"/></g></g></g></g><g class="zerolinelayer-above"/><path class="xlines-above crisp" d="M79,220.5H432M79,79.5H432" style="fill: none; stroke-width: 1px; stroke: rgb(0, 0, 0); stroke-opacity: 1;"/><path class="ylines-above crisp" d="M79.5,80V220M431.5,80V220" style="fill: none; stroke-width: 1px; stroke: rgb(0, 0, 0); stroke-opacity: 1;"/><g class="overlines-above"/><g class="xaxislayer-above"><path class="xtick ticks crisp" d="M0,221v6" transform="translate(80,0)" style="stroke: rgb(68, 68, 68); stroke-opacity: 1; stroke-width: 1px;"/><path class="xtick ticks crisp" d="M0,221v6" transform="translate(150.2,0)" style="stroke: rgb(68, 68, 68); stroke-opacity: 1; stroke-width: 1px;"/><path class="xtick ticks crisp" d="M0,221v6" transform="translate(220.4,0)" style="stroke: rgb(68, 68, 68); stroke-opacity: 1; stroke-width: 1px;"/><path class="xtick ticks crisp" d="M0,221v6" transform="translate(290.6,0)" style="stroke: rgb(68, 68, 68); stroke-opacity: 1; stroke-width: 1px;"/><path class="xtick ticks crisp" d="M0,221v6" transform="translate(360.8,0)" style="stroke: rgb(68, 68, 68); stroke-opacity: 1; stroke-width: 1px;"/><path class="xtick ticks crisp" d="M0,221v6" transform="translate(431,0)" style="stroke: rgb(68, 68, 68); stroke-opacity: 1; stroke-width: 1px;"/><g class="xtick"><text text-anchor="middle" x="0" y="243.8" transform="translate(80,0)" style="font-family: Inter, Helvetica, Arial; font-size: 14px; fill: rgb(0, 0, 0); fill-opacity: 1; white-space: pre;">0</text></g><g class="xtick"><text text-anchor="middle" x="0" y="243.8" style="font-family: Inter, Helvetica, Arial; font-size: 14px; fill: rgb(0, 0, 0); fill-opacity: 1; white-space: pre;" transform="translate(150.2,0)">20</text></g><g class="xtick"><text text-anchor="middle" x="0" y="243.8" style="font-family: Inter, Helvetica, Arial; font-size: 14px; fill: rgb(0, 0, 0); fill-opacity: 1; white-space: pre;" transform="translate(220.4,0)">40</text></g><g class="xtick"><text text-anchor="middle" x="0" y="243.8" style="font-family: Inter, Helvetica, Arial; font-size: 14px; fill: rgb(0, 0, 0); fill-opacity: 1; white-space: pre;" transform="translate(290.6,0)">60</text></g><g class="xtick"><text text-anchor="middle" x="0" y="243.8" style="font-family: Inter, Helvetica, Arial; font-size: 14px; fill: rgb(0, 0, 0); fill-opacity: 1; white-space: pre;" transform="translate(360.8,0)">80</text></g><g class="xtick"><text text-anchor="middle" x="0" y="243.8" style="font-family: Inter, Helvetica, Arial; font-size: 14px; fill: rgb(0, 0, 0); fill-opacity: 1; white-space: pre;" transform="translate(431,0)">100</text></g></g><g class="yaxislayer-above"><path class="ytick ticks crisp" d="M79,0h-6" transform="translate(0,220)" style="stroke: rgb(68, 68, 68); stroke-opacity: 1; stroke-width: 1px;"/><path class="ytick ticks crisp" d="M79,0h-6" transform="translate(0,196.67000000000002)" style="stroke: rgb(68, 68, 68); stroke-opacity: 1; stroke-width: 1px;"/><path class="ytick ticks crisp" d="M79,0h-6" transform="translate(0,173.32999999999998)" style="stroke: rgb(68, 68, 68); stroke-opacity: 1; stroke-width: 1px;"/><path class="ytick ticks crisp" d="M79,0h-6" transform="translate(0,150)" style="stroke: rgb(68, 68, 68); stroke-opacity: 1; stroke-width: 1px;"/><path class="ytick ticks crisp" d="M79,0h-6" transform="translate(0,126.67)" style="stroke: rgb(68, 68, 68); stroke-opacity: 1; stroke-width: 1px;"/><path class="ytick ticks crisp" d="M79,0h-6" transform="translate(0,103.33)" style="stroke: rgb(68, 68, 68); stroke-opacity: 1; stroke-width: 1px;"/><path class="ytick ticks crisp" d="M79,0h-6" transform="translate(0,80)" style="stroke: rgb(68, 68, 68); stroke-opacity: 1; stroke-width: 1px;"/><g class="ytick"><text text-anchor="end" x="70.2" y="4.8999999999999995" transform="translate(0,220)" style="font-family: Inter, Helvetica, Arial; font-size: 14px; fill: rgb(0, 0, 0); fill-opacity: 1; white-space: pre;">0</text></g><g class="ytick"><text text-anchor="end" x="70.2" y="4.8999999999999995" style="font-family: Inter, Helvetica, Arial; font-size: 14px; fill: rgb(0, 0, 0); fill-opacity: 1; white-space: pre;" transform="translate(0,196.67000000000002)">100</text></g><g class="ytick"><text text-anchor="end" x="70.2" y="4.8999999999999995" style="font-family: Inter, Helvetica, Arial; font-size: 14px; fill: rgb(0, 0, 0); fill-opacity: 1; white-space: pre;" transform="translate(0,173.32999999999998)">200</text></g><g class="ytick"><text text-anchor="end" x="70.2" y="4.8999999999999995" style="font-family: Inter, Helvetica, Arial; font-size: 14px; fill: rgb(0, 0, 0); fill-opacity: 1; white-space: pre;" transform="translate(0,150)">300</text></g><g class="ytick"><text text-anchor="end" x="70.2" y="4.8999999999999995" style="font-family: Inter, Helvetica, Arial; font-size: 14px; fill: rgb(0, 0, 0); fill-opacity: 1; white-space: pre;" transform="translate(0,126.67)">400</text></g><g class="ytick"><text text-anchor="end" x="70.2" y="4.8999999999999995" style="font-family: Inter, Helvetica, Arial; font-size: 14px; fill: rgb(0, 0, 0); fill-opacity: 1; white-space: pre;" transform="translate(0,103.33)">500</text></g><g class="ytick"><text text-anchor="end" x="70.2" y="4.8999999999999995" style="font-family: Inter, Helvetica, Arial; font-size: 14px; fill: rgb(0, 0, 0); fill-opacity: 1; white-space: pre;" transform="translate(0,80)">600</text></g></g><g class="overaxes-above"/></g><g class="subplot x2y2"><g class="layer-subplot"><g class="shapelayer"/><g class="imagelayer"/></g><g class="minor-gridlayer"><g class="x2"/><g class="y2"/></g><g class="gridlayer"><g class="x2"><path class="x2grid crisp" transform="translate(579.2,0)" d="M0,80v140" style="stroke: rgb(200, 200, 200); stroke-opacity: 0.35; stroke-width: 1px;"/><path class="x2grid crisp" transform="translate(649.4000000000001,0)" d="M0,80v140" style="stroke: rgb(200, 200, 200); stroke-opacity: 0.35; stroke-width: 1px;"/><path class="x2grid crisp" transform="translate(719.6,0)" d="M0,80v140" style="stroke: rgb(200, 200, 200); stroke-opacity: 0.35; stroke-width: 1px;"/><path class="x2grid crisp" transform="translate(789.8000000000001,0)" d="M0,80v140" style="stroke: rgb(200, 200, 200); stroke-opacity: 0.35; stroke-width: 1px;"/></g><g class="y2"><path class="y2grid crisp" transform="translate(0,196.67000000000002)" d="M509.00000000000006,0h350.99999999999994" style="stroke: rgb(200, 200, 200); stroke-opacity: 0.35; stroke-width: 1px;"/><path class="y2grid crisp" transform="translate(0,173.32999999999998)" d="M509.00000000000006,0h350.99999999999994" style="stroke: rgb(200, 200, 200); stroke-opacity: 0.35; stroke-width: 1px;"/><path class="y2grid crisp" transform="translate(0,150)" d="M509.00000000000006,0h350.99999999999994" style="stroke: rgb(200, 200, 200); stroke-opacity: 0.35; stroke-width: 1px;"/><path class="y2grid crisp" transform="translate(0,126.67)" d="M509.00000000000006,0h350.99999999999994" style="stroke: rgb(200, 200, 200); stroke-opacity: 0.35; stroke-width: 1px;"/><path class="y2grid crisp" transform="translate(0,103.33)" d="M509.00000000000006,0h350.99999999999994" style="stroke: rgb(200, 200, 200); stroke-opacity: 0.35; stroke-width: 1px;"/></g></g><g class="zerolinelayer"/><g class="layer-between"><g class="shapelayer"/><g class="imagelayer"/></g><path class="xlines-below"/><path class="ylines-below"/><g class="overlines-below"/><g class="xaxislayer-below"/><g class="yaxislayer-below"/><g class="overaxes-below"/><g class="overplot"><g class="x2y2" transform="translate(509.00000000000006,80)" clip-path="url(#clip5f4d7ex2y2plot)"><g class="scatterlayer mlayer"><g class="trace scatter tracec2108b" style="stroke-miterlimit: 2; opacity: 1;"><g class="fills"/><g class="errorbars"/><g class="lines"><path class="js-line" d="M0,139.69L14.04,129.46L17.55,126.82L49.14,102.43L52.65,99.56L80.73,77.58L84.24,74.84L108.81,55.73L112.32,52.93L147.42,25.83L150.93,24.59L154.44,23.36L157.95,23.2L196.56,20.7L200.07,20.42L308.88,12.17L312.39,11.91L351,8.5" style="vector-effect: none; fill: none; stroke: rgb(228, 26, 28); stroke-opacity: 1; stroke-width: 2px; opacity: 1;"/></g><g class="points"/><g class="text"/></g><g class="trace scatter trace8257c8" style="stroke-miterlimit: 2; opacity: 1;"><g class="fills"/><g class="errorbars"/><g class="lines"><path class="js-line" d="M0,139.69L14.04,130.03L17.55,127.41L66.69,91.51L70.2,88.94L161.46,22.47L164.97,22.3L210.6,19.25L214.11,18.99L351,8.5" style="vector-effect: none; fill: none; stroke: rgb(231, 49, 51); stroke-opacity: 1; stroke-width: 2px; opacity: 1;"/></g><g class="points"/><g class="text"/></g><g class="trace scatter trace80dd71" style="stroke-miterlimit: 2; opacity: 1;"><g class="fills"/><g class="errorbars"/><g class="lines"><path class="js-line" d="M0,139.68L14.04,130.63L17.55,128.17L70.2,92.12L73.71,89.74L171.99,23.26L175.5,21.46L351,8.81" style="vector-effect: none; fill: none; stroke: rgb(233, 72, 73); stroke-opacity: 1; stroke-width: 2px; opacity: 1;"/></g><g class="points"/><g class="text"/></g><g class="trace scatter tracec8ad20" style="stroke-miterlimit: 2; opacity: 1;"><g class="fills"/><g class="errorbars"/><g class="lines"><path class="js-line" d="M0,139.68L14.04,131.22L17.55,128.92L49.14,108.92L52.65,106.72L119.34,64.12L122.85,61.78L157.95,39.21L161.46,36.97L186.03,21.8L189.54,19.94L343.98,9.57L347.49,9.19L351,8.81" style="vector-effect: none; fill: none; stroke: rgb(236, 95, 96); stroke-opacity: 1; stroke-width: 2px; opacity: 1;"/></g><g class="points"/><g class="text"/></g><g class="trace scatter trace5eebc4" style="stroke-miterlimit: 2; opacity: 1;"><g class="fills"/><g class="errorbars"/><g class="lines"><path class="js-line" d="M0,139.68L14.04,131.82L17.55,129.84L49.14,111.08L52.65,109.03L119.34,69.53L122.85,67.35L157.95,46.5L161.46,44.44L203.58,19.26L207.09,18.62L214.11,17.76L217.62,17.54L351,9.13" style="vector-effect: none; fill: none; stroke: rgb(239, 118, 119); stroke-opacity: 1; stroke-width: 2px; opacity: 1;"/></g><g class="points"/><g class="text"/></g><g class="trace scatter traced7cc27" style="stroke-miterlimit: 2; opacity: 1;"><g class="fills"/><g class="errorbars"/><g class="lines"><path class="js-line" d="M0,139.67L14.04,132.41L17.55,130.58L49.14,113.21L52.65,111.33L94.77,88.1L98.28,86.15L119.34,74.65L122.85,72.82L147.42,59.17L150.93,57.3L193.05,33.95L196.56,31.99L224.64,16.69L228.15,16.48L351,9.13" style="vector-effect: none; fill: none; stroke: rgb(242, 140, 141); stroke-opacity: 1; stroke-width: 2px; opacity: 1;"/></g><g class="points"/><g class="text"/></g><g class="trace scatter trace68acd9" style="stroke-miterlimit: 2; opacity: 1;"><g class="fills"/><g class="errorbars"/><g class="lines"><path class="js-line" d="M0,139.67L14.04,133.01L17.55,131.33L49.14,115.39L52.65,113.67L129.87,74.85L133.38,73L164.97,56.99L168.48,55.27L193.05,42.69L196.56,40.93L245.7,15.68L249.21,15.09L256.23,14.35L259.74,14.19L343.98,9.64L347.49,9.38L351,9.13" style="vector-effect: none; fill: none; stroke: rgb(244, 163, 164); stroke-opacity: 1; stroke-width: 2px; opacity: 1;"/></g><g class="points"/><g class="text"/></g></g></g></g><g class="zerolinelayer-above"/><path class="xlines-above crisp" d="M508.00000000000006,220.5H861M508.00000000000006,79.5H861" style="fill: none; stroke-width: 1px; stroke: rgb(0, 0, 0); stroke-opacity: 1;"/><path class="ylines-above crisp" d="M508.50000000000006,80V220M860.5,80V220" style="fill: none; stroke-width: 1px; stroke: rgb(0, 0, 0); stroke-opacity: 1;"/><g class="overlines-above"/><g class="xaxislayer-above"><path class="x2tick ticks crisp" d="M0,221v6" transform="translate(509.00000000000006,0)" style="stroke: rgb(68, 68, 68); stroke-opacity: 1; stroke-width: 1px;"/><path class="x2tick ticks crisp" d="M0,221v6" transform="translate(579.2,0)" style="stroke: rgb(68, 68, 68); stroke-opacity: 1; stroke-width: 1px;"/><path class="x2tick ticks crisp" d="M0,221v6" transform="translate(649.4000000000001,0)" style="stroke: rgb(68, 68, 68); stroke-opacity: 1; stroke-width: 1px;"/><path class="x2tick ticks crisp" d="M0,221v6" transform="translate(719.6,0)" style="stroke: rgb(68, 68, 68); stroke-opacity: 1; stroke-width: 1px;"/><path class="x2tick ticks crisp" d="M0,221v6" transform="translate(789.8000000000001,0)" style="stroke: rgb(68, 68, 68); stroke-opacity: 1; stroke-width: 1px;"/><path class="x2tick ticks crisp" d="M0,221v6" transform="translate(860,0)" style="stroke: rgb(68, 68, 68); stroke-opacity: 1; stroke-width: 1px;"/><g class="x2tick"><text text-anchor="middle" x="0" y="243.8" transform="translate(509.00000000000006,0)" style="font-family: Inter, Helvetica, Arial; font-size: 14px; fill: rgb(0, 0, 0); fill-opacity: 1; white-space: pre;">0</text></g><g class="x2tick"><text text-anchor="middle" x="0" y="243.8" style="font-family: Inter, Helvetica, Arial; font-size: 14px; fill: rgb(0, 0, 0); fill-opacity: 1; white-space: pre;" transform="translate(579.2,0)">20</text></g><g class="x2tick"><text text-anchor="middle" x="0" y="243.8" style="font-family: Inter, Helvetica, Arial; font-size: 14px; fill: rgb(0, 0, 0); fill-opacity: 1; white-space: pre;" transform="translate(649.4000000000001,0)">40</text></g><g class="x2tick"><text text-anchor="middle" x="0" y="243.8" style="font-family: Inter, Helvetica, Arial; font-size: 14px; fill: rgb(0, 0, 0); fill-opacity: 1; white-space: pre;" transform="translate(719.6,0)">60</text></g><g class="x2tick"><text text-anchor="middle" x="0" y="243.8" style="font-family: Inter, Helvetica, Arial; font-size: 14px; fill: rgb(0, 0, 0); fill-opacity: 1; white-space: pre;" transform="translate(789.8000000000001,0)">80</text></g><g class="x2tick"><text text-anchor="middle" x="0" y="243.8" style="font-family: Inter, Helvetica, Arial; font-size: 14px; fill: rgb(0, 0, 0); fill-opacity: 1; white-space: pre;" transform="translate(860,0)">100</text></g></g><g class="yaxislayer-above"><path class="y2tick ticks crisp" d="M508.00000000000006,0h-6" transform="translate(0,220)" style="stroke: rgb(68, 68, 68); stroke-opacity: 1; stroke-width: 1px;"/><path class="y2tick ticks crisp" d="M508.00000000000006,0h-6" transform="translate(0,196.67000000000002)" style="stroke: rgb(68, 68, 68); stroke-opacity: 1; stroke-width: 1px;"/><path class="y2tick ticks crisp" d="M508.00000000000006,0h-6" transform="translate(0,173.32999999999998)" style="stroke: rgb(68, 68, 68); stroke-opacity: 1; stroke-width: 1px;"/><path class="y2tick ticks crisp" d="M508.00000000000006,0h-6" transform="translate(0,150)" style="stroke: rgb(68, 68, 68); stroke-opacity: 1; stroke-width: 1px;"/><path class="y2tick ticks crisp" d="M508.00000000000006,0h-6" transform="translate(0,126.67)" style="stroke: rgb(68, 68, 68); stroke-opacity: 1; stroke-width: 1px;"/><path class="y2tick ticks crisp" d="M508.00000000000006,0h-6" transform="translate(0,103.33)" style="stroke: rgb(68, 68, 68); stroke-opacity: 1; stroke-width: 1px;"/><path class="y2tick ticks crisp" d="M508.00000000000006,0h-6" transform="translate(0,80)" style="stroke: rgb(68, 68, 68); stroke-opacity: 1; stroke-width: 1px;"/><g class="y2tick"><text text-anchor="end" x="499.20000000000005" y="4.8999999999999995" transform="translate(0,220)" style="font-family: Inter, Helvetica, Arial; font-size: 14px; fill: rgb(0, 0, 0); fill-opacity: 1; white-space: pre;">0</text></g><g class="y2tick"><text text-anchor="end" x="499.20000000000005" y="4.8999999999999995" style="font-family: Inter, Helvetica, Arial; font-size: 14px; fill: rgb(0, 0, 0); fill-opacity: 1; white-space: pre;" transform="translate(0,196.67000000000002)">100</text></g><g class="y2tick"><text text-anchor="end" x="499.20000000000005" y="4.8999999999999995" style="font-family: Inter, Helvetica, Arial; font-size: 14px; fill: rgb(0, 0, 0); fill-opacity: 1; white-space: pre;" transform="translate(0,173.32999999999998)">200</text></g><g class="y2tick"><text text-anchor="end" x="499.20000000000005" y="4.8999999999999995" style="font-family: Inter, Helvetica, Arial; font-size: 14px; fill: rgb(0, 0, 0); fill-opacity: 1; white-space: pre;" transform="translate(0,150)">300</text></g><g class="y2tick"><text text-anchor="end" x="499.20000000000005" y="4.8999999999999995" style="font-family: Inter, Helvetica, Arial; font-size: 14px; fill: rgb(0, 0, 0); fill-opacity: 1; white-space: pre;" transform="translate(0,126.67)">400</text></g><g class="y2tick"><text text-anchor="end" x="499.20000000000005" y="4.8999999999999995" style="font-family: Inter, Helvetica, Arial; font-size: 14px; fill: rgb(0, 0, 0); fill-opacity: 1; white-space: pre;" transform="translate(0,103.33)">500</text></g><g class="y2tick"><text text-anchor="end" x="499.20000000000005" y="4.8999999999999995" style="font-family: Inter, Helvetica, Arial; font-size: 14px; fill: rgb(0, 0, 0); fill-opacity: 1; white-space: pre;" transform="translate(0,80)">600</text></g></g><g class="overaxes-above"/></g></g><g class="polarlayer"/><g class="smithlayer"/><g class="ternarylayer"/><g class="geolayer"/><g class="funnelarealayer"/><g class="pielayer"/><g class="iciclelayer"/><g class="treemaplayer"/><g class="sunburstlayer"/><g class="glimages"/><defs id="topdefs-5f4d7e"><g class="clips"/><clipPath id="legend5f4d7e"><rect width="765" height="30" x="0" y="0"/></clipPath></defs><g class="layer-above"><g class="imagelayer"/><g class="shapelayer"/></g><g class="infolayer"><g class="legend" pointer-events="all" transform="translate(87.5,35.19999999999999)"><rect class="bg" shape-rendering="crispEdges" style="stroke: rgb(68, 68, 68); stroke-opacity: 1; fill: rgb(255, 255, 255); fill-opacity: 1; stroke-width: 0px;" width="765" height="30" x="0" y="0"/><g class="scrollbox" transform="" clip-path="url(#legend5f4d7e)"><g class="groups"><g class="traces" transform="translate(0,14.950000000000001)" style="opacity: 1;"><text class="legendtext" text-anchor="start" x="40" y="5.07" style="font-family: Inter, Helvetica, Arial; font-size: 13px; fill: rgb(0, 0, 0); fill-opacity: 1; white-space: pre;">SOH = 0.8</text><g class="layers" style="opacity: 1;"><g class="legendfill"/><g class="legendlines"><path class="js-line" d="M5,0h30" style="fill: none; stroke: rgb(228, 26, 28); stroke-opacity: 1; stroke-width: 2px;"/></g><g class="legendsymbols"><g class="legendpoints"/></g></g><rect class="legendtoggle" x="0" y="-9.950000000000001" width="103.5625" height="19.900000000000002" style="fill: rgb(0, 0, 0); fill-opacity: 0;"/></g><g class="traces" transform="translate(106.0625,14.950000000000001)" style="opacity: 1;"><text class="legendtext" text-anchor="start" x="40" y="5.07" style="font-family: Inter, Helvetica, Arial; font-size: 13px; fill: rgb(0, 0, 0); fill-opacity: 1; white-space: pre;">SOH = 0.75</text><g class="layers" style="opacity: 1;"><g class="legendfill"/><g class="legendlines"><path class="js-line" d="M5,0h30" style="fill: none; stroke: rgb(231, 49, 51); stroke-opacity: 1; stroke-width: 2px;"/></g><g class="legendsymbols"><g class="legendpoints"/></g></g><rect class="legendtoggle" x="0" y="-9.950000000000001" width="110.796875" height="19.900000000000002" style="fill: rgb(0, 0, 0); fill-opacity: 0;"/></g><g class="traces" transform="translate(219.359375,14.950000000000001)" style="opacity: 1;"><text class="legendtext" text-anchor="start" x="40" y="5.07" style="font-family: Inter, Helvetica, Arial; font-size: 13px; fill: rgb(0, 0, 0); fill-opacity: 1; white-space: pre;">SOH = 0.7</text><g class="layers" style="opacity: 1;"><g class="legendfill"/><g class="legendlines"><path class="js-line" d="M5,0h30" style="fill: none; stroke: rgb(233, 72, 73); stroke-opacity: 1; stroke-width: 2px;"/></g><g class="legendsymbols"><g class="legendpoints"/></g></g><rect class="legendtoggle" x="0" y="-9.950000000000001" width="103.5625" height="19.900000000000002" style="fill: rgb(0, 0, 0); fill-opacity: 0;"/></g><g class="traces" transform="translate(325.421875,14.950000000000001)" style="opacity: 1;"><text class="legendtext" text-anchor="start" x="40" y="5.07" style="font-family: Inter, Helvetica, Arial; font-size: 13px; fill: rgb(0, 0, 0); fill-opacity: 1; white-space: pre;">SOH = 0.65</text><g class="layers" style="opacity: 1;"><g class="legendfill"/><g class="legendlines"><path class="js-line" d="M5,0h30" style="fill: none; stroke: rgb(236, 95, 96); stroke-opacity: 1; stroke-width: 2px;"/></g><g class="legendsymbols"><g class="legendpoints"/></g></g><rect class="legendtoggle" x="0" y="-9.950000000000001" width="110.796875" height="19.900000000000002" style="fill: rgb(0, 0, 0); fill-opacity: 0;"/></g><g class="traces" transform="translate(438.71875,14.950000000000001)" style="opacity: 1;"><text class="legendtext" text-anchor="start" x="40" y="5.07" style="font-family: Inter, Helvetica, Arial; font-size: 13px; fill: rgb(0, 0, 0); fill-opacity: 1; white-space: pre;">SOH = 0.6</text><g class="layers" style="opacity: 1;"><g class="legendfill"/><g class="legendlines"><path class="js-line" d="M5,0h30" style="fill: none; stroke: rgb(239, 118, 119); stroke-opacity: 1; stroke-width: 2px;"/></g><g class="legendsymbols"><g class="legendpoints"/></g></g><rect class="legendtoggle" x="0" y="-9.950000000000001" width="103.5625" height="19.900000000000002" style="fill: rgb(0, 0, 0); fill-opacity: 0;"/></g><g class="traces" transform="translate(544.78125,14.950000000000001)" style="opacity: 1;"><text class="legendtext" text-anchor="start" x="40" y="5.07" style="font-family: Inter, Helvetica, Arial; font-size: 13px; fill: rgb(0, 0, 0); fill-opacity: 1; white-space: pre;">SOH = 0.55</text><g class="layers" style="opacity: 1;"><g class="legendfill"/><g class="legendlines"><path class="js-line" d="M5,0h30" style="fill: none; stroke: rgb(242, 140, 141); stroke-opacity: 1; stroke-width: 2px;"/></g><g class="legendsymbols"><g class="legendpoints"/></g></g><rect class="legendtoggle" x="0" y="-9.950000000000001" width="110.796875" height="19.900000000000002" style="fill: rgb(0, 0, 0); fill-opacity: 0;"/></g><g class="traces" transform="translate(658.078125,14.950000000000001)" style="opacity: 1;"><text class="legendtext" text-anchor="start" x="40" y="5.07" style="font-family: Inter, Helvetica, Arial; font-size: 13px; fill: rgb(0, 0, 0); fill-opacity: 1; white-space: pre;">SOH = 0.5</text><g class="layers" style="opacity: 1;"><g class="legendfill"/><g class="legendlines"><path class="js-line" d="M5,0h30" style="fill: none; stroke: rgb(244, 163, 164); stroke-opacity: 1; stroke-width: 2px;"/></g><g class="legendsymbols"><g class="legendpoints"/></g></g><rect class="legendtoggle" x="0" y="-9.950000000000001" width="103.5625" height="19.900000000000002" style="fill: rgb(0, 0, 0); fill-opacity: 0;"/></g></g></g><rect class="scrollbar" rx="20" ry="3" width="0" height="0" style="fill: rgb(128, 139, 164); fill-opacity: 1;" x="0" y="0"/></g><g class="g-gtitle"/><g class="g-xtitle" transform="translate(0,2.3000000000000114)"><text class="xtitle" x="255.5" y="258.4998046875" text-anchor="middle" style="opacity: 1; font-family: Inter, Helvetica, Arial; font-size: 16px; fill: rgb(0, 0, 0); fill-opacity: 1; white-space: pre;">SOC (%)</text></g><g class="g-x2title" transform="translate(0,2.3000000000000114)"><text class="x2title" x="684.5" y="258.4998046875" text-anchor="middle" style="opacity: 1; font-family: Inter, Helvetica, Arial; font-size: 16px; fill: rgb(0, 0, 0); fill-opacity: 1; white-space: pre;">SOC (%)</text></g><g class="g-ytitle"><text class="ytitle" transform="rotate(-90,40.7408203125,150)" x="40.7408203125" y="150" text-anchor="middle" style="opacity: 1; font-family: Inter, Helvetica, Arial; font-size: 16px; fill: rgb(0, 0, 0); fill-opacity: 1; white-space: pre;">Power (kW)</text></g><g class="g-y2title"><text class="y2title" transform="rotate(-90,469.7408203125,150)" x="469.7408203125" y="150" text-anchor="middle" style="opacity: 1; font-family: Inter, Helvetica, Arial; font-size: 16px; fill: rgb(0, 0, 0); fill-opacity: 1; white-space: pre;">Power (kW)</text></g><g class="annotation" data-index="0" style="opacity: 1;"><g class="annotation-text-g" transform="rotate(0,255.5,69.5)"><g class="cursor-pointer" transform="translate(150,59)"><rect class="bg" x="0.5" y="0.5" width="211" height="20" style="stroke-width: 1px; stroke: rgb(0, 0, 0); stroke-opacity: 0; fill: rgb(0, 0, 0); fill-opacity: 0;"/><text class="annotation-text" text-anchor="middle" x="105.59375" y="16" style="font-family: Inter, Helvetica, Arial; font-size: 16px; fill: rgb(0, 0, 0); fill-opacity: 1; white-space: pre;">(a) Power constraint (charge)</text></g></g></g><g class="annotation" data-index="1" style="opacity: 1;"><g class="annotation-text-g" transform="rotate(0,684.5,69.5)"><g class="cursor-pointer" transform="translate(569,59)"><rect class="bg" x="0.5" y="0.5" width="231" height="20" style="stroke-width: 1px; stroke: rgb(0, 0, 0); stroke-opacity: 0; fill: rgb(0, 0, 0); fill-opacity: 0;"/><text class="annotation-text" text-anchor="middle" x="115.8203125" y="16" style="font-family: Inter, Helvetica, Arial; font-size: 16px; fill: rgb(0, 0, 0); fill-opacity: 1; white-space: pre;">(b) Power constraint (discharge)</text></g></g></g></g></svg>